<svg width="333" height="84" viewBox="0 0 333 84" fill="none" xmlns="http://www.w3.org/2000/svg">
<path d="M4.57031 67V15.8125H20.3203C24.8203 15.8125 28.8398 16.832 32.3789 18.8711C35.9414 20.8867 38.7188 23.7695 40.7109 27.5195C42.7031 31.2461 43.6992 35.4883 43.6992 40.2461V42.6016C43.6992 47.3594 42.7148 51.5898 40.7461 55.293C38.8008 58.9961 36.0469 61.8672 32.4844 63.9062C28.9219 65.9453 24.9023 66.9766 20.4258 67H4.57031ZM15.1172 24.3555V58.5273H20.2148C24.3398 58.5273 27.4922 57.1797 29.6719 54.4844C31.8516 51.7891 32.9648 47.9336 33.0117 42.918V40.2109C33.0117 35.0078 31.9336 31.0703 29.7773 28.3984C27.6211 25.7031 24.4688 24.3555 20.3203 24.3555H15.1172ZM81.7031 43.3398H59.5195V61.4805H85.2891V67H52.7695V15.8125H84.9375V21.3672H59.5195V37.8203H81.7031V43.3398ZM110.637 58.0352L125.262 15.8125H132.645L113.66 67H107.684L88.7344 15.8125H96.082L110.637 58.0352Z" fill="#333333"/>
<path d="M161.57 67V15.8125H177.32C181.82 15.8125 185.84 16.832 189.379 18.8711C192.941 20.8867 195.719 23.7695 197.711 27.5195C199.703 31.2461 200.699 35.4883 200.699 40.2461V42.6016C200.699 47.3594 199.715 51.5898 197.746 55.293C195.801 58.9961 193.047 61.8672 189.484 63.9062C185.922 65.9453 181.902 66.9766 177.426 67H161.57ZM172.117 24.3555V58.5273H177.215C181.34 58.5273 184.492 57.1797 186.672 54.4844C188.852 51.7891 189.965 47.9336 190.012 42.918V40.2109C190.012 35.0078 188.934 31.0703 186.777 28.3984C184.621 25.7031 181.469 24.3555 177.32 24.3555H172.117ZM238.703 43.3398H216.52V61.4805H242.289V67H209.77V15.8125H241.938V21.3672H216.52V37.8203H238.703V43.3398ZM265.773 44.1836C259.984 42.5195 255.766 40.4805 253.117 38.0664C250.492 35.6289 249.18 32.6289 249.18 29.0664C249.18 25.0352 250.785 21.707 253.996 19.082C257.23 16.4336 261.426 15.1094 266.582 15.1094C270.098 15.1094 273.227 15.7891 275.969 17.1484C278.734 18.5078 280.867 20.3828 282.367 22.7734C283.891 25.1641 284.652 27.7773 284.652 30.6133H277.867C277.867 27.5195 276.883 25.0938 274.914 23.3359C272.945 21.5547 270.168 20.6641 266.582 20.6641C263.254 20.6641 260.652 21.4023 258.777 22.8789C256.926 24.332 256 26.3594 256 28.9609C256 31.0469 256.879 32.8164 258.637 34.2695C260.418 35.6992 263.43 37.0117 267.672 38.207C271.938 39.4023 275.266 40.7266 277.656 42.1797C280.07 43.6094 281.852 45.2852 283 47.207C284.172 49.1289 284.758 51.3906 284.758 53.9922C284.758 58.1406 283.141 61.4688 279.906 63.9766C276.672 66.4609 272.348 67.7031 266.934 67.7031C263.418 67.7031 260.137 67.0352 257.09 65.6992C254.043 64.3398 251.688 62.4883 250.023 60.1445C248.383 57.8008 247.562 55.1406 247.562 52.1641H254.348C254.348 55.2578 255.484 57.707 257.758 59.5117C260.055 61.293 263.113 62.1836 266.934 62.1836C270.496 62.1836 273.227 61.457 275.125 60.0039C277.023 58.5508 277.973 56.5703 277.973 54.0625C277.973 51.5547 277.094 49.6211 275.336 48.2617C273.578 46.8789 270.391 45.5195 265.773 44.1836ZM306.449 43.1992L300.191 49.7031V67H293.441V15.8125H300.191V41.125L322.938 15.8125H331.094L310.949 38.418L332.676 67H324.59L306.449 43.1992Z" fill="#333333"/>
<rect x="142" width="8" height="79" fill="#35BA6A"/>
</svg>
