<svg width="334" height="84" viewBox="0 0 334 84" fill="none" xmlns="http://www.w3.org/2000/svg">
<path d="M5.94141 67V15.8125H20.3906C24.8438 15.8125 28.7812 16.7969 32.2031 18.7656C35.625 20.7344 38.2617 23.5352 40.1133 27.168C41.9883 30.8008 42.9375 34.9727 42.9609 39.6836V42.9531C42.9609 47.7812 42.0234 52.0117 40.1484 55.6445C38.2969 59.2773 35.6367 62.0664 32.168 64.0117C28.7227 65.957 24.7031 66.9531 20.1094 67H5.94141ZM12.6914 21.3672V61.4805H19.793C24.9961 61.4805 29.0391 59.8633 31.9219 56.6289C34.8281 53.3945 36.2812 48.7891 36.2812 42.8125V39.8242C36.2812 34.0117 34.9102 29.5 32.168 26.2891C29.4492 23.0547 25.582 21.4141 20.5664 21.3672H12.6914ZM82.125 43.3398H59.9414V61.4805H85.7109V67H53.1914V15.8125H85.3594V21.3672H59.9414V37.8203H82.125V43.3398ZM111.059 58.0352L125.684 15.8125H133.066L114.082 67H108.105L89.1562 15.8125H96.5039L111.059 58.0352Z" fill="#333333"/>
<path d="M162.941 67V15.8125H177.391C181.844 15.8125 185.781 16.7969 189.203 18.7656C192.625 20.7344 195.262 23.5352 197.113 27.168C198.988 30.8008 199.938 34.9727 199.961 39.6836V42.9531C199.961 47.7812 199.023 52.0117 197.148 55.6445C195.297 59.2773 192.637 62.0664 189.168 64.0117C185.723 65.957 181.703 66.9531 177.109 67H162.941ZM169.691 21.3672V61.4805H176.793C181.996 61.4805 186.039 59.8633 188.922 56.6289C191.828 53.3945 193.281 48.7891 193.281 42.8125V39.8242C193.281 34.0117 191.91 29.5 189.168 26.2891C186.449 23.0547 182.582 21.4141 177.566 21.3672H169.691ZM239.125 43.3398H216.941V61.4805H242.711V67H210.191V15.8125H242.359V21.3672H216.941V37.8203H239.125V43.3398ZM266.195 44.1836C260.406 42.5195 256.188 40.4805 253.539 38.0664C250.914 35.6289 249.602 32.6289 249.602 29.0664C249.602 25.0352 251.207 21.707 254.418 19.082C257.652 16.4336 261.848 15.1094 267.004 15.1094C270.52 15.1094 273.648 15.7891 276.391 17.1484C279.156 18.5078 281.289 20.3828 282.789 22.7734C284.312 25.1641 285.074 27.7773 285.074 30.6133H278.289C278.289 27.5195 277.305 25.0938 275.336 23.3359C273.367 21.5547 270.59 20.6641 267.004 20.6641C263.676 20.6641 261.074 21.4023 259.199 22.8789C257.348 24.332 256.422 26.3594 256.422 28.9609C256.422 31.0469 257.301 32.8164 259.059 34.2695C260.84 35.6992 263.852 37.0117 268.094 38.207C272.359 39.4023 275.688 40.7266 278.078 42.1797C280.492 43.6094 282.273 45.2852 283.422 47.207C284.594 49.1289 285.18 51.3906 285.18 53.9922C285.18 58.1406 283.562 61.4688 280.328 63.9766C277.094 66.4609 272.77 67.7031 267.355 67.7031C263.84 67.7031 260.559 67.0352 257.512 65.6992C254.465 64.3398 252.109 62.4883 250.445 60.1445C248.805 57.8008 247.984 55.1406 247.984 52.1641H254.77C254.77 55.2578 255.906 57.707 258.18 59.5117C260.477 61.293 263.535 62.1836 267.355 62.1836C270.918 62.1836 273.648 61.457 275.547 60.0039C277.445 58.5508 278.395 56.5703 278.395 54.0625C278.395 51.5547 277.516 49.6211 275.758 48.2617C274 46.8789 270.812 45.5195 266.195 44.1836ZM306.871 43.1992L300.613 49.7031V67H293.863V15.8125H300.613V41.125L323.359 15.8125H331.516L311.371 38.418L333.098 67H325.012L306.871 43.1992Z" fill="#333333"/>
<rect x="142" width="8" height="79" fill="#35BA6A"/>
</svg>
